<svg width="20" height="20" viewBox="0 0 20 20" fill="none" xmlns="http://www.w3.org/2000/svg">
<rect x="0.25" y="19.75" width="19.5" height="19.5" rx="4.75" transform="rotate(-90 0.25 19.75)" fill="white" stroke="black" stroke-width="0.5"/>
<path d="M7.42234 14V13.016H9.76234V8.384H7.72234V7.4H10.8423V13.016H13.0623V14H7.42234ZM10.1823 6.212C9.91834 6.212 9.71034 6.144 9.55834 6.008C9.40634 5.872 9.33034 5.688 9.33034 5.456C9.33034 5.216 9.40634 5.028 9.55834 4.892C9.71034 4.748 9.91834 4.676 10.1823 4.676C10.4463 4.676 10.6543 4.748 10.8063 4.892C10.9583 5.028 11.0343 5.216 11.0343 5.456C11.0343 5.688 10.9583 5.872 10.8063 6.008C10.6543 6.144 10.4463 6.212 10.1823 6.212Z" fill="black"/>
</svg>
